<svg id="Calque_2" data-name="Calque 2" xmlns="http://www.w3.org/2000/svg" viewBox="0 0 238.54 87.18"><defs><style>.cls-1,.cls-3,.cls-4{fill:#00422b;}.cls-1,.cls-2,.cls-3,.cls-4{opacity:0.1;}.cls-2{fill:none;}.cls-3{font-size:27px;letter-spacing:0.07em;}.cls-3,.cls-4{font-family:Playbill;}.cls-4{font-size:16px;letter-spacing:0.07em;}</style></defs><polygon class="cls-1" points="0 33.02 34.44 0.88 36.58 0.88 43.54 7.2 96.9 7.31 96.9 0 103.97 0 103.97 7.41 115.01 7.31 136.86 35.06 70.33 35.06 35.83 4.2 2.72 35.06 0 35.06 0 33.02"/><rect class="cls-1" x="27.36" y="20.7" width="5.57" height="5.57"/><rect class="cls-1" x="35.18" y="20.7" width="5.57" height="5.57"/><rect class="cls-1" x="35.18" y="28.09" width="5.57" height="5.36"/><rect class="cls-1" x="27.36" y="28.09" width="5.57" height="5.36"/><polygon class="cls-2" points="40.75 26.27 40.75 28.09 35.18 28.09 35.18 33.45 32.93 33.45 32.93 28.09 27.36 28.09 27.36 26.27 32.93 26.27 32.93 20.7 35.18 20.7 35.18 26.27 40.75 26.27"/><rect class="cls-2" x="27.36" y="26.27" width="13.39" height="1.82"/><rect class="cls-2" x="32.93" y="20.7" width="2.25" height="12.75"/><text class="cls-3" transform="translate(0.9 60.57) scale(1.75 1)">IMMO229</text><text class="cls-4" transform="translate(101.4 70.42) scale(1.75 1)">.com</text></svg>