<svg id="Calque_2" data-name="Calque 2" xmlns="http://www.w3.org/2000/svg" viewBox="0 0 150 150"><defs><style>.cls-1,.cls-3,.cls-4{fill:#00422b;}.cls-2{fill:none;}.cls-3{font-size:27px;letter-spacing:0.07em;}.cls-3,.cls-4{font-family:Playbill;}.cls-4{font-size:16px;letter-spacing:0.07em;}</style></defs><polygon class="cls-1" points="3.46 59.75 37.89 27.61 40.04 27.61 47 33.93 100.36 34.04 100.36 26.73 107.43 26.73 107.43 34.14 118.46 34.04 140.32 61.79 73.79 61.79 39.29 30.93 6.18 61.79 3.46 61.79 3.46 59.75"/><rect class="cls-1" x="30.82" y="47.43" width="5.57" height="5.57"/><rect class="cls-1" x="38.64" y="47.43" width="5.57" height="5.57"/><rect class="cls-1" x="38.64" y="54.82" width="5.57" height="5.36"/><rect class="cls-1" x="30.82" y="54.82" width="5.57" height="5.36"/><polygon class="cls-2" points="44.21 53 44.21 54.82 38.64 54.82 38.64 60.18 36.39 60.18 36.39 54.82 30.82 54.82 30.82 53 36.39 53 36.39 47.43 38.64 47.43 38.64 53 44.21 53"/><rect class="cls-2" x="30.82" y="53" width="13.39" height="1.82"/><rect class="cls-2" x="36.39" y="47.43" width="2.25" height="12.75"/><text class="cls-3" transform="translate(4.36 87.29) scale(1.75 1)">IMMO229</text><text class="cls-4" transform="translate(104.86 97.15) scale(1.75 1)">.com</text></svg>